<?xml version="1.0" encoding="utf-8"?>
<!-- Generator: Adobe Illustrator 17.1.0, SVG Export Plug-In . SVG Version: 6.00 Build 0)  -->
<!DOCTYPE svg PUBLIC "-//W3C//DTD SVG 1.1//EN" "http://www.w3.org/Graphics/SVG/1.1/DTD/svg11.dtd">
<svg version="1.1" id="Layer_1" xmlns="http://www.w3.org/2000/svg" xmlns:xlink="http://www.w3.org/1999/xlink" x="0px" y="0px"
	 viewBox="0 0 800 800" enable-background="new 0 0 800 800" xml:space="preserve">
<path fill="#FF3D00" d="M225,700h250v75H225V700z M164.4,473.1C215.6,524.4,282.8,550,350,550c63.3,0,126.6-22.8,176.6-68.2l0.2,0.2
	l17.7-17.7l-0.2-0.2c93.8-103,90.9-262.6-8.6-362.2C484.4,50.6,417.2,25,350,25c-63.3,0-126.6,22.8-176.5,68.2l-0.2-0.2l-17.7,17.7
	l0.2,0.2C62,213.9,64.8,373.6,164.4,473.1z M350,50c63.4,0,123.1,24.7,168,69.5c89.6,89.6,92.5,233.7,8.6,326.8L191.1,111
	C234.8,71.6,290.7,50,350,50L350,50z M508.9,464C465.2,503.4,409.2,525,350,525c-63.5,0-123.1-24.7-167.9-69.5
	c-89.6-89.6-92.5-233.7-8.6-326.8L508.9,464z"/>
<path fill="#FF3D00" d="M606.3,31.2L571,66.5c59,59,91.5,137.5,91.5,221s-32.5,162-91.5,221c-59,59-137.5,91.5-221,91.5
	s-162-32.5-221-91.5l-35.4,35.3C162.1,612.3,253.2,650,350,650s187.9-37.7,256.3-106.2c68.5-68.5,106.2-159.5,106.2-256.3
	S674.8,99.6,606.3,31.2L606.3,31.2z"/>
</svg>
