<?xml version="1.0" encoding="utf-8"?>
<!-- Generator: Adobe Illustrator 17.1.0, SVG Export Plug-In . SVG Version: 6.00 Build 0)  -->
<!DOCTYPE svg PUBLIC "-//W3C//DTD SVG 1.1//EN" "http://www.w3.org/Graphics/SVG/1.1/DTD/svg11.dtd">
<svg version="1.1" id="Layer_1" xmlns="http://www.w3.org/2000/svg" xmlns:xlink="http://www.w3.org/1999/xlink" x="0px" y="0px"
	 viewBox="125 0 950 950" enable-background="new 125 0 950 950" xml:space="preserve">
<path fill="#231F20" d="M600,0C351.5,0,150,201.5,150,450s201.5,450,450,450s450-201.5,450-450S848.5,0,600,0z M829.4,332.3
	c0.3,5,0.3,10.2,0.3,15.3c0,156.5-119,336.8-336.8,336.8c-66.9,0-129.1-19.6-181.5-53.2c9.3,1.1,18.6,1.7,28.3,1.7
	c55.5,0,106.5-18.9,147-50.7C434.8,581.3,391.1,547,376,500c7.2,1.4,14.7,2.1,22.3,2.1c10.8,0,21.2-1.4,31.2-4.1
	c-54.1-10.8-94.9-58.7-94.9-116.1c0-0.5,0-1.1,0-1.5c16,8.9,34.2,14.2,53.6,14.8c-31.8-21.2-52.7-57.5-52.7-98.6
	c0-21.7,5.8-42,16-59.6c58.4,71.7,145.6,118.7,244,123.6c-2-8.7-3.1-17.7-3.1-27c0-65.4,53-118.4,118.4-118.4
	c34.1,0,64.8,14.4,86.5,37.4c27-5.3,52.4-15.1,75.2-28.7c-8.9,27.7-27.7,50.9-52.1,65.6c24-2.9,46.8-9.2,68-18.6
	C872.6,294.8,852.6,315.5,829.4,332.3z"/>
</svg>
