<?xml version="1.0" encoding="utf-8"?>
<!-- Generator: Adobe Illustrator 17.1.0, SVG Export Plug-In . SVG Version: 6.00 Build 0)  -->
<!DOCTYPE svg PUBLIC "-//W3C//DTD SVG 1.1//EN" "http://www.w3.org/Graphics/SVG/1.1/DTD/svg11.dtd">
<svg version="1.1" id="Layer_1" xmlns="http://www.w3.org/2000/svg" xmlns:xlink="http://www.w3.org/1999/xlink" x="0px" y="0px"
	 viewBox="0 0 589 589" enable-background="new 0 0 589 589" xml:space="preserve">
<path fill="#231F20" d="M294.5,0.5C131.9,0.5,0,132.4,0,295s131.9,294.5,294.5,294.5S589,457.6,589,295S457.1,0.5,294.5,0.5z
	 M444.6,218c0.2,3.3,0.2,6.7,0.2,10c0,102.4-77.9,220.4-220.4,220.4c-43.8,0-84.5-12.8-118.8-34.8c6.1,0.7,12.2,1.1,18.5,1.1
	c36.3,0,69.7-12.4,96.2-33.2c-33.9-0.6-62.5-23-72.4-53.8c4.7,0.9,9.6,1.4,14.6,1.4c7.1,0,13.9-0.9,20.4-2.7
	c-35.4-7.1-62.1-38.4-62.1-76c0-0.3,0-0.7,0-1c10.5,5.8,22.4,9.3,35.1,9.7c-20.8-13.9-34.5-37.6-34.5-64.5c0-14.2,3.8-27.5,10.5-39
	c38.2,46.9,95.3,77.7,159.7,80.9c-1.3-5.7-2-11.6-2-17.7c0-42.8,34.7-77.5,77.5-77.5c22.3,0,42.4,9.4,56.6,24.5
	c17.7-3.5,34.3-9.9,49.2-18.8c-5.8,18.1-18.1,33.3-34.1,42.9c15.7-1.9,30.6-6,44.5-12.2C472.9,193.4,459.8,207,444.6,218z"/>
</svg>
