<?xml version="1.0" encoding="utf-8"?>
<!-- Generator: Adobe Illustrator 17.1.0, SVG Export Plug-In . SVG Version: 6.00 Build 0)  -->
<!DOCTYPE svg PUBLIC "-//W3C//DTD SVG 1.1//EN" "http://www.w3.org/Graphics/SVG/1.1/DTD/svg11.dtd">
<svg version="1.1" id="Layer_1" xmlns="http://www.w3.org/2000/svg" xmlns:xlink="http://www.w3.org/1999/xlink" x="0px" y="0px"
	 viewBox="0 0 100 100" enable-background="new 0 0 100 100" xml:space="preserve">
<path fill="#DDDDDD" d="M84.9,27.7l-21.7-21C62.1,5.6,60.5,5,58.9,5H19.3c-3.4,0-6.1,2.7-6.1,6.1v77.7c0,3.4,2.7,6.1,6.1,6.1h61.4
	c3.4,0,6.1-2.7,6.1-6.1V32.1C86.8,30.5,86.1,28.9,84.9,27.7z M63.5,12.7l15.3,14.8H63.5C63.5,27.5,63.5,12.7,63.5,12.7z M82.7,88.9
	c0,1.1-0.9,2-2,2H19.3c-1.1,0-2-0.9-2-2V11.1c0-1.1,0.9-2,2-2h39.6c0.2,0,0.3,0.1,0.4,0.1v18.3c0,2.3,1.8,4.1,4.1,4.1h19.1
	c0.1,0.2,0.1,0.4,0.1,0.6V88.9z"/>
</svg>
