<?xml version="1.0" encoding="utf-8"?>
<!-- Generator: Adobe Illustrator 17.1.0, SVG Export Plug-In . SVG Version: 6.00 Build 0)  -->
<!DOCTYPE svg PUBLIC "-//W3C//DTD SVG 1.1//EN" "http://www.w3.org/Graphics/SVG/1.1/DTD/svg11.dtd">
<svg version="1.1" id="Layer_1" xmlns="http://www.w3.org/2000/svg" xmlns:xlink="http://www.w3.org/1999/xlink" x="0px" y="0px"
	 viewBox="0 0 100 100" enable-background="new 0 0 100 100" xml:space="preserve">
<g>
	<path fill="#DDDDDD" d="M93.2,51.1L93.2,51.1L93.2,51.1L51,8.6l0,0l-0.3-0.3h-0.1c-1.7-1.6-3.6-2.4-6-2.5l0,0L24.6,5l-0.9,0
		c-2.3,0-4.5,0.9-6.2,2.6l-9.9,9.9C5.8,19.3,5,21.7,5,24.1c0,0,0,0,0,0l0.1,0.8l1.3,19.6c0,0,0,0,0,0v0.4l0,0
		c0.2,1.7,0.9,3.5,2.1,4.9l1.1,1.1l41.5,42l0.6,0.6c2.4,2.1,6,2,8.3-0.3l33.2-33.5C95.6,57.4,95.6,53.5,93.2,51.1z M27.5,37.1
		c-5.3,0-9.6-4.3-9.6-9.6s4.3-9.6,9.6-9.6s9.6,4.3,9.6,9.6S32.8,37.1,27.5,37.1z"/>
</g>
</svg>
