<?xml version="1.0" encoding="utf-8"?>
<!-- Generator: Adobe Illustrator 17.1.0, SVG Export Plug-In . SVG Version: 6.00 Build 0)  -->
<!DOCTYPE svg PUBLIC "-//W3C//DTD SVG 1.1//EN" "http://www.w3.org/Graphics/SVG/1.1/DTD/svg11.dtd">
<svg version="1.1" id="Layer_1" xmlns="http://www.w3.org/2000/svg" xmlns:xlink="http://www.w3.org/1999/xlink" x="0px" y="0px"
	 viewBox="0 0 100 100" enable-background="new 0 0 100 100" xml:space="preserve">
<path d="M26.5,41.7l-5.4-5.4c-4.2-4.2-4.2-11,0-15.2s11-4.2,15.2,0l18.3,18.3c4.2,4.2,4.2,11,0,15.2c-1.5,1.5-3.2,2.4-5.1,2.8
	l9.8,9.8c1.6-1,3.1-2.1,4.4-3.5c9.2-9.2,9.2-24.3,0-33.5L45.5,11.9c-9.2-9.2-24.3-9.2-33.5,0s-9.2,24.3,0,33.5l12.7,12.7
	C23.6,52.6,24.2,46.9,26.5,41.7z M73.5,58.3l5.4,5.4c4.2,4.2,4.2,11,0,15.2s-11,4.2-15.2,0L45.4,60.6c-4.2-4.2-4.2-11,0-15.2
	c1.5-1.5,3.2-2.4,5.1-2.8l-9.8-9.8c-1.6,1-3.1,2.1-4.4,3.5c-9.2,9.2-9.2,24.3,0,33.5l18.3,18.3c9.2,9.2,24.3,9.2,33.5,0
	s9.2-24.3,0-33.5L75.4,41.9C76.4,47.4,75.8,53.1,73.5,58.3z"/>
</svg>
