<?xml version="1.0" encoding="utf-8"?>
<!-- Generator: Adobe Illustrator 17.1.0, SVG Export Plug-In . SVG Version: 6.00 Build 0)  -->
<!DOCTYPE svg PUBLIC "-//W3C//DTD SVG 1.1//EN" "http://www.w3.org/Graphics/SVG/1.1/DTD/svg11.dtd">
<svg version="1.1" id="Layer_1" xmlns="http://www.w3.org/2000/svg" xmlns:xlink="http://www.w3.org/1999/xlink" x="0px" y="0px"
	 viewBox="0 0 100 100" enable-background="new 0 0 100 100" xml:space="preserve">
<path d="M96,81c-3.5-2.5-10.2-8.7-13-12.2l-2.8-3.5c0,0-8.4-10.8-11.5-13.4c-3.1-2.6-10.7-9.2-12.2-10.4c-0.9-0.7-1.8-0.3-2.4,0.1
	l0,0l0,0L39.3,26.3c0.4-0.3,0.5-0.5,0.5-0.5s-2.7-6-0.9-9.1c1.8-2.9,3.6-4.8,12.5-4.6c0,0,9.4,0.3,11.3,0.4c3,0.1,4-2.3,0.4-3.6
	c0,0-17.9-5.6-26-3.4C29.2,7.8,24.5,10,20,14c-4.5,4-2.7,6.8-6.1,10c-3.5,3.2-7.7,3.3-9.5,5c-0.7,0.6-1.3,1.3-1.8,2
	c-0.8,1.2-1.1,2.4-0.1,3.5c1.6,1.7,6.5,7.1,6.5,7.1s1.3,1.7,3.1,1c0.1,0,0.3-0.1,0.4-0.1c0.4-0.1,0.8-0.4,1.3-0.8
	c2.5-2.3,1.2-1.1,2.5-2.3s0.8-4.4,2.5-6c0.9-0.8,2.5-2.5,4.9-3.2c2.3-0.5,5.2-0.2,8.8,2.4c0.1,0,0.1-0.1,0.2-0.1c0,0,0,0,0.1,0
	c0,0,0.1-0.1,0.1-0.1l14.2,16.1c-0.5,0.8-0.8,1.9-0.1,2.8c1.4,1.9,7,10.2,9.5,12.9c2.5,2.7,13.9,13.5,15.5,15.3
	c1.6,1.8,9.8,11.2,11.2,13.6c1.3,2.4,3.8,2.4,6.5,0.2c2.7-2.2,6-4.9,7.3-6.7C98,84.8,99.5,83.5,96,81z"/>
</svg>
